<mxfile host="Electron" modified="2024-03-22T02:07:21.371Z" agent="Mozilla/5.0 (Macintosh; Intel Mac OS X 10_15_7) AppleWebKit/537.36 (KHTML, like Gecko) draw.io/24.0.4 Chrome/120.0.6099.109 Electron/28.1.0 Safari/537.36" etag="Ipjv7_IEZn81cbc8j5Qs" version="24.0.4" type="device">
  <diagram name="1" id="it9HISIvgcf41gyp9SlQ">
    <mxGraphModel dx="1194" dy="759" grid="1" gridSize="10" guides="1" tooltips="1" connect="1" arrows="1" fold="1" page="1" pageScale="1" pageWidth="3300" pageHeight="4681" math="0" shadow="0">
      <root>
        <mxCell id="0" />
        <mxCell id="1" parent="0" />
        <mxCell id="RU8gNQ6vn65HF9KdUb3n-8" value="" style="edgeStyle=orthogonalEdgeStyle;rounded=0;orthogonalLoop=1;jettySize=auto;html=1;labelBackgroundColor=none;strokeColor=#0B4D6A;fontColor=default;" parent="1" source="RU8gNQ6vn65HF9KdUb3n-1" target="RU8gNQ6vn65HF9KdUb3n-7" edge="1">
          <mxGeometry relative="1" as="geometry" />
        </mxCell>
        <mxCell id="RU8gNQ6vn65HF9KdUb3n-1" value="RockGateway" style="rounded=1;whiteSpace=wrap;html=1;labelBackgroundColor=none;fillColor=#09555B;strokeColor=#BAC8D3;fontColor=#EEEEEE;" parent="1" vertex="1">
          <mxGeometry x="315" y="150" width="120" height="60" as="geometry" />
        </mxCell>
        <mxCell id="RU8gNQ6vn65HF9KdUb3n-2" value="&lt;h1&gt;&lt;font style=&quot;font-size: 18px;&quot;&gt;service.interfaces&lt;/font&gt;&lt;/h1&gt;&lt;p&gt;Configure the protocol for entering the gateway.This supports HTTP,HTTPS,and TCP.Both ip and port are configured here.&lt;/p&gt;" style="text;html=1;strokeColor=none;fillColor=none;spacing=5;spacingTop=-20;whiteSpace=wrap;overflow=hidden;rounded=0;labelBackgroundColor=none;fontColor=#EEEEEE;" parent="1" vertex="1">
          <mxGeometry x="450" y="150" width="190" height="120" as="geometry" />
        </mxCell>
        <mxCell id="RU8gNQ6vn65HF9KdUb3n-14" value="" style="edgeStyle=orthogonalEdgeStyle;rounded=0;orthogonalLoop=1;jettySize=auto;html=1;labelBackgroundColor=none;strokeColor=#0B4D6A;fontColor=default;" parent="1" source="RU8gNQ6vn65HF9KdUb3n-4" target="RU8gNQ6vn65HF9KdUb3n-12" edge="1">
          <mxGeometry relative="1" as="geometry" />
        </mxCell>
        <mxCell id="RU8gNQ6vn65HF9KdUb3n-4" value="route_one" style="rounded=1;whiteSpace=wrap;html=1;labelBackgroundColor=none;fillColor=#09555B;strokeColor=#BAC8D3;fontColor=#EEEEEE;" parent="1" vertex="1">
          <mxGeometry x="180" y="340" width="120" height="60" as="geometry" />
        </mxCell>
        <mxCell id="RU8gNQ6vn65HF9KdUb3n-15" value="" style="edgeStyle=orthogonalEdgeStyle;rounded=0;orthogonalLoop=1;jettySize=auto;html=1;entryX=1;entryY=0.5;entryDx=0;entryDy=0;labelBackgroundColor=none;strokeColor=#0B4D6A;fontColor=default;" parent="1" source="RU8gNQ6vn65HF9KdUb3n-5" target="RU8gNQ6vn65HF9KdUb3n-12" edge="1">
          <mxGeometry relative="1" as="geometry" />
        </mxCell>
        <mxCell id="RU8gNQ6vn65HF9KdUb3n-19" value="" style="edgeStyle=orthogonalEdgeStyle;rounded=0;orthogonalLoop=1;jettySize=auto;html=1;labelBackgroundColor=none;strokeColor=#0B4D6A;fontColor=default;" parent="1" source="RU8gNQ6vn65HF9KdUb3n-5" target="RU8gNQ6vn65HF9KdUb3n-17" edge="1">
          <mxGeometry relative="1" as="geometry" />
        </mxCell>
        <mxCell id="RU8gNQ6vn65HF9KdUb3n-5" value="route_two" style="rounded=1;whiteSpace=wrap;html=1;labelBackgroundColor=none;fillColor=#09555B;strokeColor=#BAC8D3;fontColor=#EEEEEE;" parent="1" vertex="1">
          <mxGeometry x="460" y="340" width="120" height="60" as="geometry" />
        </mxCell>
        <mxCell id="RU8gNQ6vn65HF9KdUb3n-9" value="" style="edgeStyle=orthogonalEdgeStyle;rounded=0;orthogonalLoop=1;jettySize=auto;html=1;entryX=0.5;entryY=0;entryDx=0;entryDy=0;labelBackgroundColor=none;strokeColor=#0B4D6A;fontColor=default;" parent="1" source="RU8gNQ6vn65HF9KdUb3n-7" target="RU8gNQ6vn65HF9KdUb3n-4" edge="1">
          <mxGeometry relative="1" as="geometry" />
        </mxCell>
        <mxCell id="RU8gNQ6vn65HF9KdUb3n-10" value="" style="edgeStyle=orthogonalEdgeStyle;rounded=0;orthogonalLoop=1;jettySize=auto;html=1;entryX=0.5;entryY=0;entryDx=0;entryDy=0;labelBackgroundColor=none;strokeColor=#0B4D6A;fontColor=default;" parent="1" source="RU8gNQ6vn65HF9KdUb3n-7" target="RU8gNQ6vn65HF9KdUb3n-5" edge="1">
          <mxGeometry relative="1" as="geometry" />
        </mxCell>
        <mxCell id="RU8gNQ6vn65HF9KdUb3n-7" value="routes.xx.in.pattern" style="rhombus;whiteSpace=wrap;html=1;labelBackgroundColor=none;fillColor=#09555B;strokeColor=#BAC8D3;fontColor=#EEEEEE;" parent="1" vertex="1">
          <mxGeometry x="305" y="280" width="140" height="70" as="geometry" />
        </mxCell>
        <mxCell id="RU8gNQ6vn65HF9KdUb3n-11" value="Determine which route to take for those request data by configuring routes.xx.in.pattern with different routes." style="text;html=1;strokeColor=none;fillColor=none;align=center;verticalAlign=middle;whiteSpace=wrap;rounded=0;labelBackgroundColor=none;fontColor=#EEEEEE;" parent="1" vertex="1">
          <mxGeometry x="220" y="220" width="140" height="70" as="geometry" />
        </mxCell>
        <mxCell id="RU8gNQ6vn65HF9KdUb3n-12" value="pipe_line_one" style="rounded=1;whiteSpace=wrap;html=1;labelBackgroundColor=none;fillColor=#09555B;strokeColor=#BAC8D3;fontColor=#EEEEEE;" parent="1" vertex="1">
          <mxGeometry x="180" y="490" width="120" height="60" as="geometry" />
        </mxCell>
        <mxCell id="RU8gNQ6vn65HF9KdUb3n-13" value="pipe_line_two" style="rounded=1;whiteSpace=wrap;html=1;labelBackgroundColor=none;fillColor=#09555B;strokeColor=#BAC8D3;fontColor=#EEEEEE;" parent="1" vertex="1">
          <mxGeometry x="460" y="490" width="120" height="60" as="geometry" />
        </mxCell>
        <mxCell id="RU8gNQ6vn65HF9KdUb3n-16" value="Different routes can choose to use the same pipe_line." style="text;html=1;strokeColor=none;fillColor=none;align=center;verticalAlign=middle;whiteSpace=wrap;rounded=0;labelBackgroundColor=none;fontColor=#EEEEEE;" parent="1" vertex="1">
          <mxGeometry x="240" y="430" width="130" height="50" as="geometry" />
        </mxCell>
        <mxCell id="RU8gNQ6vn65HF9KdUb3n-17" value="hosts" style="rounded=1;whiteSpace=wrap;html=1;labelBackgroundColor=none;fillColor=#09555B;strokeColor=#BAC8D3;fontColor=#EEEEEE;" parent="1" vertex="1">
          <mxGeometry x="800" y="340" width="120" height="60" as="geometry" />
        </mxCell>
        <mxCell id="RU8gNQ6vn65HF9KdUb3n-18" value="&lt;h1&gt;&lt;font style=&quot;font-size: 18px;&quot;&gt;hosts.xx.servers&lt;/font&gt;&lt;/h1&gt;&lt;p&gt;This is the exit of the rockgateway,where load balancing policies can be configured through hosts.xx.type.&lt;/p&gt;" style="text;html=1;strokeColor=none;fillColor=none;spacing=5;spacingTop=-20;whiteSpace=wrap;overflow=hidden;rounded=0;labelBackgroundColor=none;fontColor=#EEEEEE;" parent="1" vertex="1">
          <mxGeometry x="920" y="330" width="190" height="120" as="geometry" />
        </mxCell>
        <mxCell id="RU8gNQ6vn65HF9KdUb3n-20" value="The route will only select which pipe_line to use as the data flow pipeline, but the outlet of the pipeline is still in the route. routes.xx.out.out_host" style="text;html=1;strokeColor=none;fillColor=none;align=center;verticalAlign=middle;whiteSpace=wrap;rounded=0;labelBackgroundColor=none;fontColor=#EEEEEE;" parent="1" vertex="1">
          <mxGeometry x="600" y="370" width="180" height="100" as="geometry" />
        </mxCell>
      </root>
    </mxGraphModel>
  </diagram>
</mxfile>
